<?xml version="1.0" standalone="no"?>
<!DOCTYPE svg PUBLIC "-//W3C//DTD SVG 20010904//EN"
 "http://www.w3.org/TR/2001/REC-SVG-20010904/DTD/svg10.dtd">
<svg version="1.0" xmlns="http://www.w3.org/2000/svg"
 width="500.000000pt" height="500.000000pt" viewBox="0 0 500.000000 500.000000"
 preserveAspectRatio="xMidYMid meet">
<metadata>
Created by potrace 1.11, written by Peter Selinger 2001-2013
</metadata>
<g transform="translate(0.000000,500.000000) scale(0.100000,-0.100000)"
fill="#000000" stroke="none">
<path d="M2120 4886 c0 -33 -30 -104 -128 -306 -62 -128 -172 -304 -249 -398
-20 -24 -51 -67 -71 -95 -105 -155 -526 -667 -549 -667 -3 0 -2 57 2 128 4 70
7 150 7 177 -1 28 3 73 8 100 5 28 21 142 36 255 14 113 31 230 39 260 7 30
23 117 35 192 22 133 23 139 5 158 -33 37 -85 34 -85 -6 0 -7 -16 -40 -35 -73
-116 -198 -324 -285 -455 -190 -49 35 -74 34 -78 -3 -6 -50 98 -98 215 -98
109 0 182 32 292 129 13 12 26 19 29 17 2 -3 -3 -47 -11 -98 -28 -170 -54
-376 -63 -498 -3 -41 -9 -122 -14 -180 -4 -58 -9 -136 -9 -175 -1 -38 -4 -94
-7 -123 -6 -49 -8 -53 -28 -47 -47 15 -177 17 -222 5 -116 -33 -177 -186 -88
-220 47 -18 211 21 279 67 11 7 27 13 37 13 15 0 16 -12 12 -142 -3 -79 -10
-222 -15 -318 -5 -96 -16 -284 -23 -417 -8 -132 -16 -245 -19 -250 -4 -6 1
-19 9 -31 17 -25 77 -31 91 -9 4 6 9 71 9 142 3 188 11 487 19 628 7 123 11
228 14 346 1 73 0 73 94 13 216 -137 319 -231 802 -731 156 -161 192 -195 290
-271 56 -43 176 -112 231 -132 33 -12 46 -39 24 -53 -6 -3 -10 -15 -10 -26 0
-18 -12 -52 -55 -154 -96 -229 -148 -647 -115 -937 16 -149 57 -307 115 -443
31 -73 127 -196 189 -242 148 -110 356 -116 573 -17 156 71 242 150 400 369
46 64 53 79 68 165 60 336 32 480 -145 735 -89 128 -183 266 -216 315 -9 14
-25 36 -34 50 -47 70 -80 140 -68 145 7 2 55 16 106 30 159 44 292 108 380
184 101 87 178 198 188 269 8 59 -5 69 -32 25 -123 -202 -255 -315 -434 -373
-30 -10 -66 -22 -80 -28 -14 -6 -60 -18 -103 -27 -75 -17 -78 -17 -92 1 -8 11
-15 23 -15 28 0 5 -21 41 -46 80 -25 39 -77 127 -115 196 -66 117 -69 126 -57
154 17 42 209 257 320 358 210 193 361 305 565 422 37 22 79 47 93 57 62 42
280 145 400 189 103 38 116 67 49 107 -25 15 -29 15 -70 -4 -24 -12 -73 -33
-109 -48 -36 -15 -81 -35 -100 -45 -173 -89 -199 -104 -385 -219 -104 -63
-221 -148 -249 -180 -11 -11 -24 -21 -30 -21 -6 0 -25 -12 -42 -27 -17 -16
-52 -46 -80 -68 -63 -52 -256 -244 -314 -314 -86 -104 -113 -132 -120 -124 -4
4 -25 40 -46 78 -21 39 -55 102 -77 140 -21 39 -63 122 -93 185 -31 63 -83
171 -116 240 -110 229 -139 303 -155 395 -28 164 68 278 349 414 124 60 195
80 305 88 235 16 390 -82 488 -311 34 -77 72 -110 101 -86 19 17 17 40 -6 70
-11 14 -20 30 -20 35 0 6 -12 33 -27 60 -87 164 -218 259 -402 290 -119 21
-246 8 -364 -36 -141 -53 -207 -82 -218 -96 -6 -7 -17 -13 -23 -13 -22 0 -154
-100 -202 -153 -69 -77 -88 -125 -81 -211 3 -39 20 -113 37 -166 31 -90 345
-724 444 -895 64 -110 65 -116 22 -168 -20 -24 -36 -47 -36 -50 0 -4 -16 -31
-35 -61 -19 -30 -35 -59 -35 -63 0 -4 -16 -30 -35 -57 -19 -27 -35 -55 -35
-61 0 -7 -9 -20 -19 -29 -19 -17 -24 -16 -119 34 -138 73 -245 163 -433 363
-252 266 -527 536 -609 598 -63 46 -156 107 -288 186 l-24 15 59 62 c32 34 75
82 96 106 20 25 59 70 85 101 119 139 431 534 538 681 81 112 210 345 299 542
39 86 25 115 -57 116 -23 0 -28 -4 -28 -24z m-1165 -1606 c3 -5 -9 -17 -27
-26 -46 -24 -157 -53 -164 -43 -9 15 14 46 43 57 57 22 138 29 148 12z m2053
-1096 c56 -95 102 -175 102 -179 0 -4 -57 -5 -127 -3 -131 5 -293 39 -293 62
0 17 147 271 178 309 18 21 6 38 140 -189z m-261 -224 c89 -28 273 -43 361
-30 l44 7 65 -101 c36 -56 78 -119 94 -141 93 -129 279 -419 302 -471 76 -173
75 -452 -3 -605 -36 -72 -130 -197 -191 -255 -121 -115 -260 -177 -429 -193
-100 -9 -99 -9 -210 43 -139 66 -245 253 -307 546 -28 131 -25 488 6 670 22
133 53 255 92 360 11 30 27 75 36 99 20 60 42 91 62 91 9 0 44 -9 78 -20z"/>
</g>
</svg>
